<svg width="160" height="160" viewBox="0 0 160 160" fill="none" xmlns="http://www.w3.org/2000/svg">
<path d="M68.4787 127.858C94.9097 127.858 116.336 106.431 116.336 80.0001C116.336 53.5691 94.9097 32.1426 68.4787 32.1426C42.0477 32.1426 20.6211 53.5691 20.6211 80.0001C20.6211 106.431 42.0477 127.858 68.4787 127.858Z" stroke="white" stroke-width="4.70545" stroke-miterlimit="10"/>
<path d="M110.621 127.859C126.505 127.859 139.381 114.983 139.381 99.0996C139.381 83.216 126.505 70.3398 110.621 70.3398C94.7375 70.3398 81.8613 83.216 81.8613 99.0996C81.8613 114.983 94.7375 127.859 110.621 127.859Z" stroke="white" stroke-width="4.70545" stroke-miterlimit="10"/>
<path d="M89.123 80H116.336" stroke="white" stroke-width="4.70545" stroke-miterlimit="10"/>
<path d="M83.1621 90.0391H115.278" stroke="white" stroke-width="4.70545" stroke-miterlimit="10"/>
<path d="M81.8789 100.076H111.556" stroke="white" stroke-width="4.70545" stroke-miterlimit="10"/>
<path d="M83.4082 110.117H105.673" stroke="white" stroke-width="4.70545" stroke-miterlimit="10"/>
</svg>
