<svg width="160" height="160" viewBox="0 0 160 160" fill="none" xmlns="http://www.w3.org/2000/svg">
<path d="M30.1692 45.6606C35.6032 45.6606 40.0083 41.2555 40.0083 35.8215C40.0083 30.3875 35.6032 25.9824 30.1692 25.9824C24.7352 25.9824 20.3301 30.3875 20.3301 35.8215C20.3301 41.2555 24.7352 45.6606 30.1692 45.6606Z" fill="white" stroke="white" stroke-width="4.70545" stroke-miterlimit="10"/>
<path d="M84.2786 45.6606C89.7125 45.6606 94.1176 41.2555 94.1176 35.8215C94.1176 30.3875 89.7125 25.9824 84.2786 25.9824C78.8446 25.9824 74.4395 30.3875 74.4395 35.8215C74.4395 41.2555 78.8446 45.6606 84.2786 45.6606Z" stroke="white" stroke-width="4.70545" stroke-miterlimit="10"/>
<path d="M71.1203 90.0981C76.5543 90.0981 80.9594 85.693 80.9594 80.259C80.9594 74.825 76.5543 70.4199 71.1203 70.4199C65.6864 70.4199 61.2812 74.825 61.2812 80.259C61.2812 85.693 65.6864 90.0981 71.1203 90.0981Z" stroke="white" stroke-width="4.70545" stroke-miterlimit="10"/>
<path d="M87.1575 133.467C92.5914 133.467 96.9965 129.062 96.9965 123.628C96.9965 118.194 92.5914 113.789 87.1575 113.789C81.7235 113.789 77.3184 118.194 77.3184 123.628C77.3184 129.062 81.7235 133.467 87.1575 133.467Z" stroke="white" stroke-width="4.70545" stroke-miterlimit="10"/>
<path d="M129.726 133.467C135.16 133.467 139.565 129.062 139.565 123.628C139.565 118.194 135.16 113.789 129.726 113.789C124.292 113.789 119.887 118.194 119.887 123.628C119.887 129.062 124.292 133.467 129.726 133.467Z" stroke="white" stroke-width="4.70545" stroke-miterlimit="10"/>
<path d="M102.83 35.8223H112.084C122.516 35.8223 131.617 43.0373 133.864 53.2183C133.907 53.4081 133.947 53.601 133.985 53.794C136.703 67.5182 126.03 80.259 112.039 80.259H90.2871" stroke="white" stroke-width="4.70545" stroke-linecap="round" stroke-linejoin="round"/>
<path d="M68.5097 123.628H44.4507C34.0187 123.628 24.9184 116.413 22.6708 106.234C22.6284 106.042 22.5876 105.849 22.55 105.656C19.8318 91.9322 30.5053 79.1914 44.4962 79.1914H52.2006" stroke="white" stroke-width="4.70545" stroke-linecap="round" stroke-linejoin="round"/>
<path d="M105.191 123.627H119.887" stroke="white" stroke-width="4.70545" stroke-linecap="round" stroke-linejoin="round"/>
<path d="M41.4141 35.8223H73.386" stroke="white" stroke-width="4.70545" stroke-linecap="round" stroke-linejoin="round"/>
</svg>
