<svg width="160" height="160" viewBox="0 0 160 160" fill="none" xmlns="http://www.w3.org/2000/svg">
<path d="M106.994 95.1371L89.1711 105.175C71.3484 115.214 71.8064 101.552 71.8064 101.552L101.052 77.2188H138.479V114.663L114.891 119.027C98.1475 127.28 75.1975 132.015 75.1975 132.015C64.0801 127.584 41.3841 122.335 31.8038 115.195C28.8864 113.021 17.4255 92.3342 23.1191 88.0366C28.5006 83.9758 37.5805 100.035 42.1432 103.535C42.1432 103.535 65.3348 110.449 73.9646 107.285" stroke="white" stroke-width="4.70545" stroke-linecap="round" stroke-linejoin="round"/>
<path d="M39.0176 63.2188H112.63" stroke="white" stroke-width="4.70545" stroke-linecap="round" stroke-linejoin="round"/>
<path d="M75.8223 26.4121V63.2181" stroke="white" stroke-width="4.70545" stroke-linecap="round" stroke-linejoin="round"/>
<path d="M43.9492 44.8164L75.8239 63.2194" stroke="white" stroke-width="4.70545" stroke-linecap="round" stroke-linejoin="round"/>
<path d="M94.2253 31.3438L75.8223 63.2185" stroke="white" stroke-width="4.70545" stroke-linecap="round" stroke-linejoin="round"/>
<path d="M107.697 44.8164L75.8223 63.2194" stroke="white" stroke-width="4.70545" stroke-linecap="round" stroke-linejoin="round"/>
<path d="M57.4199 31.3438L75.8229 63.2185" stroke="white" stroke-width="4.70545" stroke-linecap="round" stroke-linejoin="round"/>
</svg>
