<svg width="24" height="26" viewBox="0 0 24 26" fill="none" xmlns="http://www.w3.org/2000/svg">
<path d="M12 16.56C10.2529 16.5686 8.53937 16.0795 7.06 15.15C6.97424 15.0952 6.90019 15.0239 6.84215 14.9403C6.7841 14.8568 6.7432 14.7625 6.72181 14.663C6.70042 14.5635 6.69897 14.4607 6.71754 14.3607C6.73611 14.2606 6.77433 14.1652 6.83 14.08C6.88305 13.9938 6.95279 13.919 7.03513 13.8601C7.11747 13.8012 7.21076 13.7593 7.3095 13.737C7.40825 13.7146 7.51046 13.7122 7.61015 13.7299C7.70984 13.7476 7.80498 13.785 7.89 13.84C9.12783 14.5954 10.5499 14.995 12 14.995C13.4501 14.995 14.8722 14.5954 16.11 13.84C16.195 13.785 16.2902 13.7476 16.3899 13.7299C16.4895 13.7122 16.5918 13.7146 16.6905 13.737C16.7892 13.7593 16.8825 13.8012 16.9649 13.8601C17.0472 13.919 17.117 13.9938 17.17 14.08C17.2257 14.1652 17.2639 14.2606 17.2825 14.3607C17.301 14.4607 17.2996 14.5635 17.2782 14.663C17.2568 14.7625 17.2159 14.8568 17.1579 14.9403C17.0998 15.0239 17.0258 15.0952 16.94 15.15C15.4606 16.0795 13.7471 16.5686 12 16.56ZM14 18.5L19 20.5L21 21.5V21.88C21.0012 22.0513 20.9584 22.2201 20.8756 22.3701C20.7928 22.5201 20.6729 22.6463 20.5274 22.7366C20.3818 22.827 20.2155 22.8784 20.0444 22.886C19.8732 22.8936 19.703 22.8571 19.55 22.78L13 20.5H5.89C5.12352 20.5 4.38844 20.1955 3.84646 19.6535C3.30448 19.1116 3 18.3765 3 17.61V6.39C3 5.62352 3.30448 4.88844 3.84646 4.34646C4.38844 3.80448 5.12352 3.5 5.89 3.5H18.11C19.71 3.5 21 4.79 21 5.39V21.5L19 20.5V6.72C19 6.55979 18.9684 6.40114 18.9071 6.25313C18.8458 6.10511 18.756 5.97062 18.6427 5.85733C18.5294 5.74404 18.3949 5.65418 18.2469 5.59287C18.0989 5.53156 17.9402 5.5 17.78 5.5H6.22C6.05979 5.5 5.90114 5.53156 5.75313 5.59287C5.60511 5.65418 5.47062 5.74404 5.35733 5.85733C5.24404 5.97062 5.15418 6.10511 5.09287 6.25313C5.03156 6.40114 5 6.55979 5 6.72V17.28C5 17.954 5.546 18.5 6.22 18.5H14Z" fill="black"/>
</svg>
