<svg
          className='header__logo'
          viewBox='0 0 85 41'
          fill='none'
          xmlns='http://www.w3.org/2000/svg'
          aria-label='Rey logo'
        >
          <path
            d="M51.2321 23.0148V20.3563C51.2321 16.7418 50.1748 13.6363 48.177 11.3785C46.0626 8.99096 43.0186 7.72888 39.3733 7.72888C35.8757 7.72888 32.6709 9.01079 30.3494 11.3367C28.0256 13.6648 26.7481 16.8829 26.7481 20.4004C26.7481 24.1139 27.9574 27.2988 30.2414 29.6093C32.541 31.9331 35.7303 33.1621 39.4636 33.1621C41.9636 33.1621 44.3468 32.5278 46.3534 31.3252C48.0251 30.3252 49.3555 28.9662 50.2695 27.3407L43.3314 25.2461C42.4922 26.3297 41.1398 27.0412 39.4086 27.0412C36.4858 27.0367 34.8691 25.2262 34.7524 23.0148H51.2321ZM34.4836 18.1691C34.618 15.6164 36.6135 13.6714 39.4196 13.6714C42.3116 13.6714 44.2213 15.6164 44.3556 18.1691H34.4836Z"
            fill="black"
          />
          <path
            d="M67.3264 8.56373L63.2759 21.6185L59.135 8.56373H50.4017L58.6857 31.2063L58.3904 32.3318C57.7077 34.5784 54.2915 33.8693 53.6439 33.8164V40.3889C54.4985 40.4792 55.3554 40.5232 56.7495 40.5232C62.8265 40.5232 65.1216 37.2369 67.1942 31.6093L75.7028 8.56152H67.3264V8.56373Z"
            fill="black"
          />
          <path
            d="M19.9972 20.7461C23.9465 19.2726 26.4221 15.9004 26.4221 11.0041C26.4221 3.94923 21.6293 0 14.678 0H0V32.3317H8.22665V22.5897H12.0636L18.2066 32.3317H27.5785L19.9972 20.7461ZM14.5502 14.5613C14.3564 14.5877 14.1582 14.6119 13.9467 14.623C13.764 14.6339 13.5745 14.6406 13.3785 14.6406H8.22445V7.39407H13.3785C16.4842 7.39407 17.9709 8.74426 17.9709 11.0393C17.9709 12.9072 16.8586 14.2353 14.5502 14.5613Z"
            fill="black"
          />
          <path
            d="M83.8611 27.6842H72.5068C72.3746 27.6842 72.2667 27.5762 72.2667 27.4441C72.2667 27.3118 72.3746 27.2039 72.5068 27.2039H83.8611C83.9933 27.2039 84.1013 27.3118 84.1013 27.4441C84.1013 27.5762 83.9933 27.6842 83.8611 27.6842Z"
            fill="black"
          />
          <path
            d="M73.2689 30.5235C73.1853 30.5235 73.1059 30.4817 73.0619 30.4046C72.9958 30.2901 73.0354 30.1425 73.15 30.0764L82.9823 24.4004C83.0969 24.3342 83.2444 24.3739 83.3106 24.4884C83.3766 24.603 83.3369 24.7505 83.2224 24.8167L73.3901 30.4927C73.3504 30.5126 73.3086 30.5235 73.2689 30.5235Z"
            fill="black"
          />
          <path
            d="M75.3459 32.6003C75.3063 32.6003 75.2644 32.5894 75.227 32.5673C75.1124 32.5013 75.0728 32.3536 75.1388 32.2392L80.8149 22.4069C80.881 22.2923 81.0264 22.2527 81.1431 22.3187C81.2576 22.3848 81.2973 22.5324 81.2312 22.6469L75.5551 32.4793C75.5089 32.5585 75.4296 32.6003 75.3459 32.6003Z"
            fill="black"
          />
          <path
            d="M78.1851 33.3625C78.0529 33.3625 77.945 33.2546 77.945 33.1224V21.7681C77.945 21.6359 78.0529 21.528 78.1851 21.528C78.3172 21.528 78.4252 21.6359 78.4252 21.7681V33.1224C78.4252 33.2546 78.3172 33.3625 78.1851 33.3625Z"
            fill="black"
          />
          <path
            d="M81.0243 32.6005C80.9406 32.6005 80.8613 32.5587 80.8172 32.4816L75.1412 22.6493C75.0751 22.5347 75.1147 22.3871 75.2292 22.321C75.3438 22.255 75.4914 22.2946 75.5574 22.4092L81.2335 32.2415C81.2995 32.3561 81.2599 32.5036 81.1453 32.5696C81.1057 32.5917 81.0639 32.6005 81.0243 32.6005Z"
            fill="black"
          />
          <path
            d="M83.1013 30.5235C83.0616 30.5235 83.0198 30.5125 82.9823 30.4905L73.15 24.8144C73.0354 24.7483 72.9958 24.6008 73.0619 24.4862C73.128 24.3718 73.2733 24.332 73.3901 24.3981L83.2224 30.0742C83.3369 30.1403 83.3766 30.2879 83.3106 30.4024C83.2643 30.4795 83.1828 30.5235 83.1013 30.5235Z"
            fill="black"
          />
        </svg>
