<svg width="80" height="80" viewBox="0 0 80 80" fill="none" xmlns="http://www.w3.org/2000/svg">
<path d="M67.0475 48.4561C67.2591 47.1503 67.3527 45.8283 67.3272 44.506C67.321 41.0006 66.4345 37.5521 64.7481 34.4726C63.0616 31.3931 60.6285 28.7799 57.6688 26.8695C57.4431 21.7376 55.2309 16.8903 51.4936 13.3389C47.7564 9.78735 42.7827 7.80584 37.6099 7.80762C25.6281 7.80762 18.0498 18.4982 17.8916 28.4157C17.8646 29.7372 17.9501 31.0586 18.1471 32.3658C17.0863 33.6578 16.4337 35.2324 16.2714 36.8916C16.109 38.5509 16.4442 40.2208 17.2348 41.6914C18.2243 43.5244 19.6237 45.1079 21.3253 46.3203C23.027 47.5327 24.9858 48.3418 27.0513 48.6856L27.7204 48.7581C29.399 59.9681 38.3763 65.9597 46.8791 65.9597C49.4494 65.9865 52.0024 65.5401 54.4088 64.643C55.1317 64.8028 55.8699 64.8838 56.6105 64.8846C57.1067 64.882 57.6023 64.8498 58.0946 64.7879C60.1796 64.4549 62.1594 63.6498 63.8807 62.4348C65.602 61.2198 67.0186 59.6277 68.0206 57.7816C68.8029 56.3053 69.1279 54.6321 68.9547 52.9727C68.7815 51.3132 68.118 49.7418 67.0475 48.4561Z" fill="url(#paint0_linear)"/>
<path d="M56.0774 66.8496C56.0774 66.8496 53.2782 69.1913 46.7348 69.1913C39.1866 69.1913 30.0832 63.6586 30.0832 51.4772V48.9778C30.0832 40.5939 26.8414 38.1309 24.9274 39.781C23.0135 41.4311 25.9562 46.442 33.5762 46.5148C41.1962 46.5876 50.2158 40.9943 50.2158 28.8007C50.2158 16.6071 40.5981 11.0381 32.5833 11.0381C28.0686 11.0824 23.7515 12.9229 20.5612 16.1632C17.3709 19.4035 15.5624 23.7848 15.525 28.3639C15.386 31.9935 16.4239 35.5692 18.4797 38.5435C20.3219 41.4918 21.889 42.8871 20.2502 44.4643C18.6113 46.0416 14.5561 43.9547 13.001 41.2734" stroke="black" stroke-width="2" stroke-linecap="round" stroke-linejoin="round"/>
<path d="M67.9237 63.4043C66.3734 66.0229 62.2832 68.0225 60.6972 66.5228C59.1112 65.023 60.6137 63.6185 62.4501 60.7261C64.5155 57.8099 65.563 54.2967 65.4314 50.7278C65.4126 47.1993 64.2949 43.7639 62.2331 40.8977C60.1713 38.0314 57.2674 35.8762 53.9238 34.7305" stroke="black" stroke-width="2" stroke-linecap="round" stroke-linejoin="round"/>
<path d="M24.8467 25.0381H41.0003" stroke="black" stroke-linecap="round" stroke-linejoin="round"/>
<path d="M24.8467 31.5H41.0003" stroke="black" stroke-linecap="round" stroke-linejoin="round"/>
<path d="M39.9238 49.8066H56.0775" stroke="black" stroke-linecap="round" stroke-linejoin="round"/>
<path d="M39.9238 56.2686H56.0775" stroke="black" stroke-linecap="round" stroke-linejoin="round"/>
<path d="M21.5496 57.4004H20.5371" stroke="black" stroke-linecap="round" stroke-linejoin="round"/>
<path d="M17.4754 57.4004H16.4629" stroke="black" stroke-linecap="round" stroke-linejoin="round"/>
<path d="M19 59.95V58.9375" stroke="black" stroke-linecap="round" stroke-linejoin="round"/>
<path d="M19 55.8748V54.8623" stroke="black" stroke-linecap="round" stroke-linejoin="round"/>
<path d="M56 23.745C57.7642 21.9871 60.1532 21 62.6438 21C65.1343 21 67.5233 21.9871 69.2875 23.745" stroke="black" stroke-linecap="round" stroke-linejoin="round"/>
<path d="M57.9004 26.0977C59.1585 24.8444 60.862 24.1406 62.6379 24.1406C64.4138 24.1406 66.1173 24.8444 67.3754 26.0977" stroke="black" stroke-linecap="round" stroke-linejoin="round"/>
<path d="M59.8125 28.4947C60.184 28.1224 60.6253 27.8271 61.1112 27.6256C61.597 27.424 62.1178 27.3203 62.6437 27.3203C63.1697 27.3203 63.6905 27.424 64.1763 27.6256C64.6621 27.8271 65.1035 28.1224 65.475 28.4947" stroke="black" stroke-linecap="round" stroke-linejoin="round"/>
<path d="M62.6387 31.3945C63.0874 31.3945 63.4512 31.0308 63.4512 30.582C63.4512 30.1333 63.0874 29.7695 62.6387 29.7695C62.1899 29.7695 61.8262 30.1333 61.8262 30.582C61.8262 31.0308 62.1899 31.3945 62.6387 31.3945Z" fill="black"/>
<defs>
<linearGradient id="paint0_linear" x1="62.0002" y1="26.1151" x2="28.7781" y2="50.5659" gradientUnits="userSpaceOnUse">
<stop offset="0.223958" stop-color="#FFEEC3"/>
<stop offset="1" stop-color="#FEFAF5"/>
</linearGradient>
</defs>
</svg>
