<svg width="80" height="80" viewBox="0 0 80 80" fill="none" xmlns="http://www.w3.org/2000/svg">
<path d="M63.0262 40.9709H16.9738C16.4377 40.9709 16 40.5332 16 39.9972C16 39.4612 16.4377 39.0234 16.9738 39.0234H63.0262C63.5623 39.0234 64 39.4612 64 39.9972C64 40.5332 63.5623 40.9709 63.0262 40.9709Z" fill="#0A0C09"/>
<path d="M20.0652 52.4904C19.7257 52.4904 19.4041 52.3207 19.2254 52.008C18.9574 51.5435 19.1182 50.9449 19.5828 50.6769L59.4622 27.6551C59.9267 27.3871 60.5253 27.5479 60.7933 28.0125C61.0613 28.477 60.9005 29.0756 60.436 29.3436L20.5566 52.3653C20.3958 52.4457 20.226 52.4904 20.0652 52.4904Z" fill="#0A0C09"/>
<path d="M28.489 60.9077C28.3282 60.9077 28.1585 60.8631 28.0066 60.7737C27.5421 60.5057 27.3813 59.9072 27.6493 59.4426L50.6711 19.5632C50.9391 19.0987 51.5287 18.9379 52.0021 19.2059C52.4667 19.4739 52.6275 20.0725 52.3595 20.537L29.3377 60.4164C29.1501 60.738 28.8285 60.9077 28.489 60.9077Z" fill="#0A0C09"/>
<path d="M40.005 64.002C39.469 64.002 39.0312 63.5642 39.0312 63.0282V16.9757C39.0312 16.4397 39.469 16.002 40.005 16.002C40.541 16.002 40.9788 16.4397 40.9788 16.9757V63.0282C40.9788 63.5642 40.541 64.002 40.005 64.002Z" fill="#0A0C09"/>
<path d="M51.5225 60.9105C51.183 60.9105 50.8615 60.7408 50.6828 60.4281L27.661 20.5487C27.393 20.0842 27.5538 19.4856 28.0183 19.2176C28.4829 18.9496 29.0814 19.1104 29.3494 19.575L52.3712 59.4544C52.6392 59.9189 52.4784 60.5175 52.0139 60.7855C51.8531 60.8748 51.6833 60.9105 51.5225 60.9105Z" fill="#0A0C09"/>
<path d="M59.9446 52.4915C59.7838 52.4915 59.6141 52.4469 59.4622 52.3575L19.5828 29.3358C19.1182 29.0678 18.9574 28.4692 19.2254 28.0047C19.4934 27.5401 20.0831 27.3793 20.5566 27.6473L60.436 50.6691C60.9005 50.9371 61.0613 51.5356 60.7933 52.0002C60.6057 52.3129 60.2752 52.4915 59.9446 52.4915Z" fill="#0A0C09"/>
</svg>
