<svg width="80" height="80" viewBox="0 0 80 80" fill="none" xmlns="http://www.w3.org/2000/svg">
<path d="M30.3216 19.8242H61.5069C62.0968 19.8242 62.681 19.9404 63.226 20.1662C63.7711 20.392 64.2664 20.7229 64.6835 21.14C65.1007 21.5572 65.4316 22.0525 65.6574 22.5975C65.8831 23.1426 65.9993 23.7267 65.9993 24.3167V50.7712C65.9993 51.3611 65.8831 51.9453 65.6574 52.4904C65.4316 53.0354 65.1007 53.5307 64.6835 53.9478C64.2664 54.365 63.7711 54.6959 63.226 54.9217C62.681 55.1474 62.0968 55.2636 61.5069 55.2636H23.3743C22.1828 55.2636 21.0402 54.7903 20.1977 53.9478C19.3552 53.1053 18.8818 51.9626 18.8818 50.7712V31.5976C18.8818 25.1151 23.1002 22.3028 26.4011 24.9244C30.6553 28.3087 25.4716 32.4795 23.2194 27.0575C22.0039 24.126 23.5888 19.8242 30.3216 19.8242Z" fill="url(#paint0_linear)"/>
<path d="M27.9388 22.207H59.124C59.714 22.207 60.2982 22.3232 60.8432 22.549C61.3883 22.7748 61.8835 23.1057 62.3007 23.5228C62.7179 23.94 63.0488 24.4353 63.2745 24.9803C63.5003 25.5254 63.6165 26.1096 63.6165 26.6995V53.154C63.6165 53.7439 63.5003 54.3281 63.2745 54.8732C63.0488 55.4182 62.7179 55.9135 62.3007 56.3306C61.8835 56.7478 61.3883 57.0787 60.8432 57.3045C60.2982 57.5302 59.714 57.6464 59.124 57.6464H20.9915C20.4015 57.6464 19.8174 57.5302 19.2723 57.3045C18.7273 57.0787 18.232 56.7478 17.8148 56.3306C17.3977 55.9135 17.0668 55.4182 16.841 54.8732C16.6152 54.3281 16.499 53.7439 16.499 53.154V33.9804C16.499 27.4979 20.7174 24.6856 24.0183 27.3073C28.2724 30.6915 23.0888 34.8623 20.8366 29.4403C19.6211 26.5089 21.206 22.207 27.9388 22.207Z" stroke="#0A0C09" stroke-width="2" stroke-miterlimit="10"/>
<path d="M29.6426 27.8682H59.7077" stroke="#0A0C09" stroke-linecap="round" stroke-linejoin="round"/>
<path d="M40.0581 41.4531C42.4142 41.4531 44.3242 39.5431 44.3242 37.187C44.3242 34.8309 42.4142 32.9209 40.0581 32.9209C37.702 32.9209 35.792 34.8309 35.792 37.187C35.792 39.5431 37.702 41.4531 40.0581 41.4531Z" stroke="#0A0C09" stroke-linecap="round" stroke-linejoin="round"/>
<path d="M30.5254 53.5253C30.5254 50.997 31.5298 48.5722 33.3176 46.7844C35.1054 44.9966 37.5302 43.9922 40.0585 43.9922C42.5869 43.9922 45.0116 44.9966 46.7995 46.7844C48.5873 48.5722 49.5916 50.997 49.5916 53.5253" stroke="#0A0C09" stroke-linecap="round" stroke-linejoin="round"/>
<path d="M59.7073 34.3877H54.333" stroke="#0A0C09" stroke-linecap="round" stroke-linejoin="round"/>
<path d="M57.0146 37.0813V31.707" stroke="#0A0C09" stroke-linecap="round" stroke-linejoin="round"/>
<path d="M58.9234 36.2935L55.1221 32.4922" stroke="#0A0C09" stroke-linecap="round" stroke-linejoin="round"/>
<path d="M55.1221 36.2935L58.9234 32.4922" stroke="#0A0C09" stroke-linecap="round" stroke-linejoin="round"/>
<path d="M13.5498 21.375V20.375" stroke="#0A0C09" stroke-linecap="round" stroke-linejoin="round"/>
<path d="M13.5498 17.2998V16.2998" stroke="#0A0C09" stroke-linecap="round" stroke-linejoin="round"/>
<path d="M11.0117 18.8369H12.0117" stroke="#0A0C09" stroke-linecap="round" stroke-linejoin="round"/>
<path d="M15.0879 18.8369H16.0879" stroke="#0A0C09" stroke-linecap="round" stroke-linejoin="round"/>
<defs>
<linearGradient id="paint0_linear" x1="61.2899" y1="19.9997" x2="25.4834" y2="55.4836" gradientUnits="userSpaceOnUse">
<stop offset="0.432292" stop-color="#FFEEC3"/>
<stop offset="1" stop-color="#FEFAF5"/>
</linearGradient>
</defs>
</svg>
