<svg width="80" height="80" viewBox="0 0 80 80" fill="none" xmlns="http://www.w3.org/2000/svg">
<path d="M15.2754 18.6383L15.9879 17.9258" stroke="#0A0C09" stroke-linecap="round" stroke-linejoin="round"/>
<path d="M18.1621 15.7623L18.8746 15.0498" stroke="#0A0C09" stroke-linecap="round" stroke-linejoin="round"/>
<path d="M15.2754 15.0498L15.9879 15.7623" stroke="#0A0C09" stroke-linecap="round" stroke-linejoin="round"/>
<path d="M18.1621 17.9258L18.8746 18.6383" stroke="#0A0C09" stroke-linecap="round" stroke-linejoin="round"/>
<path d="M63.9385 58.6504H64.951" stroke="#0A0C09" stroke-linecap="round" stroke-linejoin="round"/>
<path d="M68.0127 58.6504H69.0252" stroke="#0A0C09" stroke-linecap="round" stroke-linejoin="round"/>
<path d="M66.4883 56.0996V57.1121" stroke="#0A0C09" stroke-linecap="round" stroke-linejoin="round"/>
<path d="M66.4883 60.1748V61.1873" stroke="#0A0C09" stroke-linecap="round" stroke-linejoin="round"/>
<path d="M42.3353 12C36.0622 12.1405 30.0934 14.7311 25.7065 19.2173C21.3196 23.7035 18.8633 29.7289 18.8633 36.0035C18.8633 42.2781 21.3196 48.3034 25.7065 52.7897C30.0934 57.2759 36.0622 59.8665 42.3353 60.007C44.5128 60.0585 46.686 59.7909 48.786 59.2127L51.578 56.3725C51.9391 56.6011 52.3122 56.8298 52.7093 57.0584C52.8073 57.1179 52.9197 57.1494 53.0343 57.1494C53.1489 57.1494 53.2613 57.1179 53.3592 57.0584C53.3592 57.0584 56.9696 56.1077 61.2781 50.7522C64.571 46.542 66.3438 41.3423 66.3087 35.9975C66.2897 29.643 63.7586 23.5538 59.2675 19.0582C54.7764 14.5626 48.6898 12.0254 42.3353 12Z" fill="url(#paint0_linear)"/>
<path d="M46.592 62.9425C44.4921 63.5207 42.3188 63.7883 40.1413 63.7368C35.3912 63.7439 30.7456 62.3418 26.7925 59.708C22.8394 57.0741 19.7565 53.3269 17.9337 48.9403C16.1109 44.5538 15.6303 39.7252 16.5527 35.0654C17.475 30.4056 19.7588 26.1242 23.1152 22.7628C26.4715 19.4014 30.7495 17.1111 35.4079 16.1818C40.0663 15.2524 44.8956 15.7258 49.2849 17.5419C53.6742 19.3581 57.4261 22.4354 60.0659 26.3845C62.7057 30.3337 64.1147 34.9771 64.1147 39.7273C64.1499 45.0721 62.377 50.2718 59.0842 54.482C54.8359 59.8375 51.1652 60.7882 51.1652 60.7882C51.0673 60.8477 50.9549 60.8792 50.8403 60.8792C50.7257 60.8792 50.6133 60.8477 50.5153 60.7882C44.4257 57.2741 42.8853 53.4951 42.8853 50.5105C42.8571 49.9816 42.9411 49.4527 43.1318 48.9586C43.3225 48.4645 43.6156 48.0163 43.9918 47.6435C44.368 47.2707 44.8189 46.9817 45.3147 46.7955C45.8106 46.6092 46.3402 46.53 46.8688 46.563C48.0479 46.5674 49.1936 46.9547 50.1335 47.6666C51.0733 48.3786 51.7564 49.3766 52.0799 50.5105C52.5131 52.2916 51.6827 52.9776 50.8764 53.0498C50.0701 53.122 48.8666 52.2916 49.4081 50.5105C49.8306 49.3957 50.5692 48.4285 51.5333 47.7273C52.4974 47.0261 53.6452 46.6215 54.8359 46.563C55.3635 46.5318 55.8918 46.6123 56.3862 46.7993C56.8806 46.9863 57.3299 47.2756 57.7048 47.6482C58.0797 48.0208 58.3717 48.4684 58.5617 48.9616C58.7517 49.4549 58.8354 49.9827 58.8074 50.5105" stroke="#0A0C09" stroke-width="2" stroke-linecap="round" stroke-linejoin="round"/>
<path d="M30.7781 38.2236H31.5483C32.1867 38.2236 32.7989 38.4772 33.2503 38.9286C33.7017 39.38 33.9553 39.9922 33.9553 40.6306V50.6315C33.9553 50.9507 33.8285 51.2568 33.6028 51.4825C33.3771 51.7082 33.071 51.835 32.7518 51.835H29.5746C29.2554 51.835 28.9493 51.7082 28.7236 51.4825C28.4979 51.2568 28.3711 50.9507 28.3711 50.6315V40.6306C28.3711 39.9922 28.6247 39.38 29.0761 38.9286C29.5275 38.4772 30.1397 38.2236 30.7781 38.2236V38.2236Z" stroke="#0A0C09" stroke-linecap="round" stroke-linejoin="round"/>
<path d="M42.8615 43.2062V35.6483C42.8615 35.0482 42.6231 34.4727 42.1988 34.0484C41.7745 33.6241 41.199 33.3857 40.599 33.3857H39.5399C38.9398 33.3857 38.3643 33.6241 37.94 34.0484C37.5157 34.4727 37.2773 35.0482 37.2773 35.6483V50.752C37.2773 51.052 37.3965 51.3398 37.6087 51.5519C37.8208 51.7641 38.1086 51.8833 38.4086 51.8833H39.8047" stroke="#0A0C09" stroke-linecap="round" stroke-linejoin="round"/>
<path d="M51.779 44.0003V30.3648C51.7759 29.7668 51.5361 29.1944 51.1121 28.7727C50.6882 28.351 50.1145 28.1143 49.5165 28.1143H48.4695C48.1729 28.1127 47.879 28.1697 47.6045 28.2821C47.3301 28.3945 47.0806 28.56 46.8703 28.7692C46.6601 28.9783 46.4932 29.2269 46.3794 29.5008C46.2655 29.7746 46.2069 30.0682 46.2069 30.3648L46.0625 43.2782" stroke="#0A0C09" stroke-linecap="round" stroke-linejoin="round"/>
<path d="M27.082 33.7245C32.8828 33.7245 40.0075 28.2246 42.1858 24.0967" stroke="#0A0C09" stroke-linecap="round" stroke-linejoin="round"/>
<path d="M38.2285 25.3134C38.2285 25.3134 41.3215 23.0027 42.5731 23.8692C43.8247 24.7357 42.2602 28.286 42.2602 28.286" stroke="#0A0C09" stroke-linecap="round" stroke-linejoin="round"/>
<defs>
<linearGradient id="paint0_linear" x1="59.0878" y1="16.9343" x2="24.5166" y2="54.8386" gradientUnits="userSpaceOnUse">
<stop offset="0.40625" stop-color="#FFEEC3"/>
<stop offset="1" stop-color="#FEFAF5" stop-opacity="0.8"/>
</linearGradient>
</defs>
</svg>
