<svg width="80" height="80" viewBox="0 0 80 80" fill="none" xmlns="http://www.w3.org/2000/svg">
<path d="M47.6871 27.325V14.25C47.6871 13.587 47.4237 12.9511 46.9549 12.4822C46.486 12.0134 45.8502 11.75 45.1871 11.75H19.1621C18.4991 11.75 17.8632 12.0134 17.3943 12.4822C16.9255 12.9511 16.6621 13.587 16.6621 14.25V40.275C16.6621 40.938 16.9255 41.5739 17.3943 42.0428C17.8632 42.5116 18.4991 42.775 19.1621 42.775H37.0246C44.6246 42.775 48.0621 35.775 44.9496 33.4125C41.8371 31.05 37.1121 35.075 37.1121 42.775V60.75C37.1121 61.413 37.3755 62.0489 37.8443 62.5178C38.3132 62.9866 38.9491 63.25 39.6121 63.25H65.8621C66.5252 63.25 67.161 62.9866 67.6299 62.5178C68.0987 62.0489 68.3621 61.413 68.3621 60.75V34.725C68.3621 34.062 68.0987 33.4261 67.6299 32.9572C67.161 32.4884 66.5252 32.225 65.8621 32.225H51.6746" fill="url(#paint0_linear)"/>
<path d="M23.6627 59.9625L22.9502 59.25" stroke="#0A0C09" stroke-linecap="round" stroke-linejoin="round"/>
<path d="M20.775 57.0748L20.0625 56.3623" stroke="#0A0C09" stroke-linecap="round" stroke-linejoin="round"/>
<path d="M20.0625 59.9625L20.775 59.25" stroke="#0A0C09" stroke-linecap="round" stroke-linejoin="round"/>
<path d="M22.9502 57.0748L23.6627 56.3623" stroke="#0A0C09" stroke-linecap="round" stroke-linejoin="round"/>
<path d="M57.75 24.9744V23.9619" stroke="#0A0C09" stroke-linecap="round" stroke-linejoin="round"/>
<path d="M57.75 20.9002V19.8877" stroke="#0A0C09" stroke-linecap="round" stroke-linejoin="round"/>
<path d="M55.2002 22.4375H56.2127" stroke="#0A0C09" stroke-linecap="round" stroke-linejoin="round"/>
<path d="M59.2754 22.4375H60.2879" stroke="#0A0C09" stroke-linecap="round" stroke-linejoin="round"/>
<path d="M45.1871 29.825V16.75C45.1871 16.087 44.9237 15.4511 44.4549 14.9822C43.986 14.5134 43.3502 14.25 42.6871 14.25H16.6621C15.9991 14.25 15.3632 14.5134 14.8943 14.9822C14.4255 15.4511 14.1621 16.087 14.1621 16.75V42.775C14.1621 43.438 14.4255 44.0739 14.8943 44.5428C15.3632 45.0116 15.9991 45.275 16.6621 45.275H34.5246C42.1246 45.275 45.5621 38.275 42.4496 35.9125C39.3371 33.55 34.6121 37.575 34.6121 45.275V63.25C34.6121 63.913 34.8755 64.5489 35.3443 65.0178C35.8132 65.4866 36.4491 65.75 37.1121 65.75H63.3621C64.0252 65.75 64.661 65.4866 65.1299 65.0178C65.5987 64.5489 65.8621 63.913 65.8621 63.25V37.225C65.8621 36.562 65.5987 35.9261 65.1299 35.4572C64.661 34.9884 64.0252 34.725 63.3621 34.725H49.1746" stroke="#0A0C09" stroke-width="2" stroke-linecap="round" stroke-linejoin="round"/>
<path d="M56.4244 46.7004C58.0606 46.7004 59.3869 45.374 59.3869 43.7379C59.3869 42.1018 58.0606 40.7754 56.4244 40.7754C54.7883 40.7754 53.4619 42.1018 53.4619 43.7379C53.4619 45.374 54.7883 46.7004 56.4244 46.7004Z" stroke="#0A0C09" stroke-linecap="round" stroke-linejoin="round"/>
<path d="M51.8379 59.2365L55.7879 54.549C55.8918 54.402 56.0295 54.282 56.1893 54.1992C56.3492 54.1164 56.5266 54.0732 56.7066 54.0732C56.8867 54.0732 57.0641 54.1164 57.2239 54.1992C57.3838 54.282 57.5215 54.402 57.6254 54.549L63.0254 61.874" stroke="#0A0C09" stroke-linecap="round" stroke-linejoin="round"/>
<path d="M38.0254 61.9378L44.7754 51.8628C44.8781 51.6947 45.0223 51.5558 45.1941 51.4595C45.366 51.3631 45.5596 51.3125 45.7566 51.3125C45.9536 51.3125 46.1473 51.3631 46.3192 51.4595C46.491 51.5558 46.6352 51.6947 46.7379 51.8628L53.6004 61.9503" stroke="#0A0C09" stroke-linecap="round" stroke-linejoin="round"/>
<path d="M18.1385 40.3504H23.326C23.7984 40.3421 24.264 40.2368 24.6941 40.0412C25.1241 39.8455 25.5094 39.5636 25.826 39.2129C26.1109 38.9346 26.3373 38.6021 26.4919 38.235C26.6464 37.868 26.726 37.4737 26.726 37.0754V36.9004C26.6981 36.3772 26.532 35.8707 26.2445 35.4327C25.957 34.9946 25.5586 34.6407 25.0897 34.4069C24.6208 34.1731 24.0983 34.0678 23.5754 34.1018C23.0526 34.1358 22.5481 34.3078 22.1135 34.6004C21.8517 33.7126 21.3097 32.9334 20.5685 32.3791C19.8272 31.8249 18.9265 31.5254 18.001 31.5254" stroke="#0A0C09" stroke-linecap="round" stroke-linejoin="round"/>
<path d="M40.8 25.562C40.76 24.8542 40.5332 24.1697 40.1427 23.578C39.7522 22.9864 39.2119 22.5088 38.5768 22.1938C37.9418 21.8788 37.2346 21.7377 36.5272 21.7848C35.8199 21.8319 35.1377 22.0656 34.55 22.462C34.145 21.123 33.2726 19.9739 32.0917 19.2241C30.9108 18.4742 29.4998 18.1733 28.1157 18.3762C26.7316 18.5791 25.4664 19.2724 24.5504 20.3297C23.6344 21.387 23.1286 22.7381 23.125 24.137C23.125 24.137 23.125 24.1995 23.125 24.237C23.125 25.8283 23.7571 27.3544 24.8824 28.4796C26.0076 29.6048 27.5337 30.237 29.125 30.237H36.125C36.7718 30.2419 37.4125 30.1122 38.0065 29.8561C38.6004 29.6 39.1346 29.2232 39.575 28.7495C39.9666 28.3768 40.2791 27.929 40.4938 27.4329C40.7086 26.9368 40.8212 26.4026 40.825 25.862C40.825 25.862 40.825 25.787 40.825 25.737C40.825 25.687 40.8 25.5995 40.8 25.562Z" stroke="#0A0C09" stroke-linecap="round" stroke-linejoin="round"/>
<defs>
<linearGradient id="paint0_linear" x1="58.3872" y1="17.0968" x2="23.871" y2="54.1936" gradientUnits="userSpaceOnUse">
<stop offset="0.364583" stop-color="#FFEEC3"/>
<stop offset="1" stop-color="#FEFAF5"/>
</linearGradient>
</defs>
</svg>
